HIERARCHY
ROOT newVegas:Hips
{
	OFFSET 0.000000 96.479958 0.000000
	CHANNELS 6 Xposition Yposition Zposition Xrotation Yrotation Zrotation
	JOINT newVegas:Pelvis
	{
		OFFSET 0.000000 0.000000 0.000000
		CHANNELS 3 Xrotation Yrotation Zrotation
		JOINT newVegas:LeftUpLeg
		{
			OFFSET 18.735201 -5.666702 -4.541200
			CHANNELS 3 Xrotation Yrotation Zrotation
			JOINT newVegas:LeftLeg
			{
				OFFSET -0.021200 -31.938179 0.493100
				CHANNELS 3 Xrotation Yrotation Zrotation
				JOINT newVegas:LeftFoot
				{
					OFFSET 0.021200 -31.938179 -4.336299
					CHANNELS 3 Xrotation Yrotation Zrotation
					JOINT newVegas:LeftToeBase
					{
						OFFSET 0.943001 -26.722000 15.023500
						CHANNELS 3 Xrotation Yrotation Zrotation
						End Site
						{
							OFFSET 0.000000 30.670183 0.000000
						}
					}
				}
				JOINT newVegas:Left_PantLeg
				{
					OFFSET 0.663870 -9.044666 -1.108900
					CHANNELS 3 Xrotation Yrotation Zrotation
					End Site
					{
						OFFSET 1.415995 20.635357 0.000000
					}
				}
			}
		}
		JOINT newVegas:RightUpLeg
		{
			OFFSET -18.735201 -5.666702 -4.541200
			CHANNELS 3 Xrotation Yrotation Zrotation
			JOINT newVegas:RightLeg
			{
				OFFSET 0.018946 -31.938133 0.493100
				CHANNELS 3 Xrotation Yrotation Zrotation
				JOINT newVegas:RightFoot
				{
					OFFSET -0.018946 -31.938126 -4.336299
					CHANNELS 3 Xrotation Yrotation Zrotation
					JOINT newVegas:RightToeBase
					{
						OFFSET -0.943001 -26.722004 15.023500
						CHANNELS 3 Xrotation Yrotation Zrotation
						End Site
						{
							OFFSET 0.000000 30.670187 0.000000
						}
					}
				}
				JOINT newVegas:Right_PantLeg
				{
					OFFSET -0.661674 -9.044716 -1.108900
					CHANNELS 3 Xrotation Yrotation Zrotation
					End Site
					{
						OFFSET -1.415958 20.635269 0.000000
					}
				}
			}
		}
	}
	JOINT newVegas:Spine
	{
		OFFSET 0.000000 10.199997 -0.299500
		CHANNELS 3 Xrotation Yrotation Zrotation
		JOINT newVegas:Spine1
		{
			OFFSET 0.000000 11.900002 -1.516600
			CHANNELS 3 Xrotation Yrotation Zrotation
			JOINT newVegas:Spine2
			{
				OFFSET 0.000000 13.600006 -2.842500
				CHANNELS 3 Xrotation Yrotation Zrotation
				JOINT newVegas:Neck
				{
					OFFSET 0.000000 9.624100 -2.890100
					CHANNELS 3 Xrotation Yrotation Zrotation
					JOINT newVegas:Head
					{
						OFFSET 0.000000 14.068802 -1.351900
						CHANNELS 3 Xrotation Yrotation Zrotation
						JOINT newVegas:Hair_Back
						{
							OFFSET 0.000000 3.231903 -17.524799
							CHANNELS 3 Xrotation Yrotation Zrotation
							End Site
							{
								OFFSET 0.000000 19.849884 0.000000
							}
						}
						JOINT newVegas:Hair_Front
						{
							OFFSET 0.000000 31.260406 4.573800
							CHANNELS 3 Xrotation Yrotation Zrotation
							JOINT newVegas:Hair_Front1
							{
								OFFSET 0.000000 2.284103 11.993300
								CHANNELS 3 Xrotation Yrotation Zrotation
								JOINT newVegas:Hair_Front2
								{
									OFFSET 0.000000 2.284103 11.993300
									CHANNELS 3 Xrotation Yrotation Zrotation
									End Site
									{
										OFFSET 0.000000 12.208862 0.000000
									}
								}
							}
						}
						JOINT newVegas:Jowel
						{
							OFFSET 0.000000 -7.458206 6.864100
							CHANNELS 3 Xrotation Yrotation Zrotation
							End Site
							{
								OFFSET 0.000000 19.849884 0.000000
							}
						}
					}
				}
				JOINT newVegas:LeftShoulder
				{
					OFFSET 15.263000 10.923401 -0.547700
					CHANNELS 3 Xrotation Yrotation Zrotation
					JOINT newVegas:LeftArm
					{
						OFFSET 25.438599 -2.830597 -13.032500
						CHANNELS 3 Xrotation Yrotation Zrotation
						JOINT newVegas:LeftForeArm
						{
							OFFSET 29.960503 0.000000 0.000000
							CHANNELS 3 Xrotation Yrotation Zrotation
							JOINT newVegas:LeftHand
							{
								OFFSET 27.849251 0.000000 0.000000
								CHANNELS 3 Xrotation Yrotation Zrotation
								JOINT newVegas:LeftHandThumb1
								{
									OFFSET 4.487587 -3.305161 6.305391
									CHANNELS 3 Xrotation Yrotation Zrotation
									JOINT newVegas:LeftHandThumb2
									{
										OFFSET 5.480453 -3.164139 3.164143
										CHANNELS 3 Xrotation Yrotation Zrotation
										JOINT newVegas:LeftHandThumb3
										{
											OFFSET 5.159721 -2.978973 2.978967
											CHANNELS 3 Xrotation Yrotation Zrotation
											End Site
											{
												OFFSET 2.494507 5.926697 1.738678
											}
										}
									}
								}
								JOINT newVegas:LeftHandIndex1
								{
									OFFSET 18.578728 -0.527832 5.208049
									CHANNELS 3 Xrotation Yrotation Zrotation
									JOINT newVegas:LeftHandIndex2
									{
										OFFSET 3.192009 0.000000 0.000000
										CHANNELS 3 Xrotation Yrotation Zrotation
										JOINT newVegas:LeftHandIndex3
										{
											OFFSET 3.835129 0.000000 0.000000
											CHANNELS 3 Xrotation Yrotation Zrotation
											End Site
											{
												OFFSET -0.034599 3.816971 0.371180
											}
										}
									}
								}
								JOINT newVegas:LeftHandMiddle1
								{
									OFFSET 18.476105 0.000000 0.000000
									CHANNELS 3 Xrotation Yrotation Zrotation
									JOINT newVegas:LeftHandMiddle2
									{
										OFFSET 3.324875 0.000000 0.000000
										CHANNELS 3 Xrotation Yrotation Zrotation
										JOINT newVegas:LeftHandMiddle3
										{
											OFFSET 4.596550 0.000000 0.000000
											CHANNELS 3 Xrotation Yrotation Zrotation
											End Site
											{
												OFFSET 0.057701 4.578827 0.399218
											}
										}
									}
								}
								JOINT newVegas:LeftHandRing1
								{
									OFFSET 17.732719 0.121887 -4.201567
									CHANNELS 3 Xrotation Yrotation Zrotation
									JOINT newVegas:LeftHandRing2
									{
										OFFSET 2.733170 0.000000 0.000000
										CHANNELS 3 Xrotation Yrotation Zrotation
										JOINT newVegas:LeftHandRing3
										{
											OFFSET 3.178268 0.000000 0.000000
											CHANNELS 3 Xrotation Yrotation Zrotation
											End Site
											{
												OFFSET 0.119102 3.170624 0.185394
											}
										}
									}
								}
								JOINT newVegas:LeftHandPinky1
								{
									OFFSET 15.989624 -0.606689 -7.535461
									CHANNELS 3 Xrotation Yrotation Zrotation
									JOINT newVegas:LeftHandPinky2
									{
										OFFSET 2.538986 0.000000 0.000000
										CHANNELS 3 Xrotation Yrotation Zrotation
										JOINT newVegas:LeftHandPinky3
										{
											OFFSET 2.593102 0.000000 0.000000
											CHANNELS 3 Xrotation Yrotation Zrotation
											End Site
											{
												OFFSET -0.150902 2.584198 0.152708
											}
										}
									}
								}
							}
							JOINT newVegas:Left_Sleeve
							{
								OFFSET 0.267448 -0.649796 0.577675
								CHANNELS 3 Xrotation Yrotation Zrotation
								End Site
								{
									OFFSET 0.000000 15.991241 0.000000
								}
							}
							JOINT newVegas:Left_CapeC
							{
								OFFSET 15.715958 -8.608795 -6.935905
								CHANNELS 3 Xrotation Yrotation Zrotation
								JOINT newVegas:Left_CapeC1
								{
									OFFSET 0.000000 -8.688499 0.000000
									CHANNELS 3 Xrotation Yrotation Zrotation
									End Site
									{
										OFFSET 0.000000 8.688499 0.000000
									}
								}
							}
						}
						JOINT newVegas:Left_CapeB
						{
							OFFSET 26.118385 -8.608795 -7.079235
							CHANNELS 3 Xrotation Yrotation Zrotation
							JOINT newVegas:Left_CapeB1
							{
								OFFSET 0.000000 -8.688499 0.000000
								CHANNELS 3 Xrotation Yrotation Zrotation
								End Site
								{
									OFFSET 0.000000 8.688499 0.000000
								}
							}
						}
						JOINT newVegas:Left_CapeA
						{
							OFFSET 5.115639 -8.608795 -10.395809
							CHANNELS 3 Xrotation Yrotation Zrotation
							JOINT newVegas:Left_CapeA1
							{
								OFFSET 0.000000 -8.688499 0.000000
								CHANNELS 3 Xrotation Yrotation Zrotation
								End Site
								{
									OFFSET 0.000000 8.688499 0.000000
								}
							}
						}
					}
				}
				JOINT newVegas:RightShoulder
				{
					OFFSET -15.263000 10.923401 -0.547700
					CHANNELS 3 Xrotation Yrotation Zrotation
					JOINT newVegas:RightArm
					{
						OFFSET -25.438599 -2.830597 -13.032500
						CHANNELS 3 Xrotation Yrotation Zrotation
						JOINT newVegas:RightForeArm
						{
							OFFSET -29.960503 0.000000 0.000000
							CHANNELS 3 Xrotation Yrotation Zrotation
							JOINT newVegas:RightHand
							{
								OFFSET -27.849251 0.000000 0.000000
								CHANNELS 3 Xrotation Yrotation Zrotation
								JOINT newVegas:RightHandThumb1
								{
									OFFSET -4.487587 -3.305161 6.305391
									CHANNELS 3 Xrotation Yrotation Zrotation
									JOINT newVegas:RightHandThumb2
									{
										OFFSET -5.480453 -3.164139 3.164143
										CHANNELS 3 Xrotation Yrotation Zrotation
										JOINT newVegas:RightHandThumb3
										{
											OFFSET -5.159721 -2.978973 2.978967
											CHANNELS 3 Xrotation Yrotation Zrotation
											End Site
											{
												OFFSET -2.494507 5.926697 1.738678
											}
										}
									}
								}
								JOINT newVegas:RightHandIndex1
								{
									OFFSET -18.578728 -0.527832 5.208049
									CHANNELS 3 Xrotation Yrotation Zrotation
									JOINT newVegas:RightHandIndex2
									{
										OFFSET -3.192009 0.000000 0.000000
										CHANNELS 3 Xrotation Yrotation Zrotation
										JOINT newVegas:RightHandIndex3
										{
											OFFSET -3.835129 0.000000 0.000000
											CHANNELS 3 Xrotation Yrotation Zrotation
											End Site
											{
												OFFSET 0.034599 3.816971 0.371180
											}
										}
									}
								}
								JOINT newVegas:RightHandMiddle1
								{
									OFFSET -18.476105 0.000000 0.000000
									CHANNELS 3 Xrotation Yrotation Zrotation
									JOINT newVegas:RightHandMiddle2
									{
										OFFSET -3.324875 0.000000 0.000000
										CHANNELS 3 Xrotation Yrotation Zrotation
										JOINT newVegas:RightHandMiddle3
										{
											OFFSET -4.596550 0.000000 0.000000
											CHANNELS 3 Xrotation Yrotation Zrotation
											End Site
											{
												OFFSET -0.057701 4.578827 0.399218
											}
										}
									}
								}
								JOINT newVegas:RightHandRing1
								{
									OFFSET -17.732719 0.121887 -4.201567
									CHANNELS 3 Xrotation Yrotation Zrotation
									JOINT newVegas:RightHandRing2
									{
										OFFSET -2.733170 0.000000 0.000000
										CHANNELS 3 Xrotation Yrotation Zrotation
										JOINT newVegas:RightHandRing3
										{
											OFFSET -3.178268 0.000000 0.000000
											CHANNELS 3 Xrotation Yrotation Zrotation
											End Site
											{
												OFFSET -0.119102 3.170624 0.185394
											}
										}
									}
								}
								JOINT newVegas:RightHandPinky1
								{
									OFFSET -15.989624 -0.606689 -7.535461
									CHANNELS 3 Xrotation Yrotation Zrotation
									JOINT newVegas:RightHandPinky2
									{
										OFFSET -2.538986 0.000000 0.000000
										CHANNELS 3 Xrotation Yrotation Zrotation
										JOINT newVegas:RightHandPinky3
										{
											OFFSET -2.593102 0.000000 0.000000
											CHANNELS 3 Xrotation Yrotation Zrotation
											End Site
											{
												OFFSET 0.150902 2.584198 0.152708
											}
										}
									}
								}
							}
							JOINT newVegas:Right_CapeC
							{
								OFFSET -15.715958 -8.608795 -6.935905
								CHANNELS 3 Xrotation Yrotation Zrotation
								JOINT newVegas:Right_CapeC1
								{
									OFFSET 0.000000 -8.688499 0.000000
									CHANNELS 3 Xrotation Yrotation Zrotation
									End Site
									{
										OFFSET 0.000000 8.688499 0.000000
									}
								}
							}
							JOINT newVegas:Right_Sleeve
							{
								OFFSET -0.267448 -0.649994 0.577675
								CHANNELS 3 Xrotation Yrotation Zrotation
								End Site
								{
									OFFSET 0.000000 15.991302 0.000000
								}
							}
						}
						JOINT newVegas:Right_CapeA
						{
							OFFSET -5.115540 -8.608795 -10.395824
							CHANNELS 3 Xrotation Yrotation Zrotation
							JOINT newVegas:Right_CapeA1
							{
								OFFSET 0.000000 -8.688499 0.000000
								CHANNELS 3 Xrotation Yrotation Zrotation
								End Site
								{
									OFFSET 0.000000 8.688499 0.000000
								}
							}
						}
						JOINT newVegas:Right_CapeB
						{
							OFFSET -26.118187 -8.608795 -7.079266
							CHANNELS 3 Xrotation Yrotation Zrotation
							JOINT newVegas:Right_CapeB1
							{
								OFFSET 0.000000 -8.688499 0.000000
								CHANNELS 3 Xrotation Yrotation Zrotation
								End Site
								{
									OFFSET 0.000000 8.688499 0.000000
								}
							}
						}
					}
				}
				JOINT newVegas:Left_Collar
				{
					OFFSET 18.625099 8.655502 8.828100
					CHANNELS 3 Xrotation Yrotation Zrotation
					JOINT newVegas:Left_Collar1
					{
						OFFSET 14.783401 10.540405 -1.259500
						CHANNELS 3 Xrotation Yrotation Zrotation
						End Site
						{
							OFFSET 0.000000 18.199875 0.000000
						}
					}
				}
				JOINT newVegas:Collar_Back
				{
					OFFSET 0.000000 15.630707 -20.132601
					CHANNELS 3 Xrotation Yrotation Zrotation
					End Site
					{
						OFFSET 0.000000 22.523010 0.000000
					}
				}
				JOINT newVegas:Left_Peck
				{
					OFFSET 17.239599 -5.132599 25.482599
					CHANNELS 3 Xrotation Yrotation Zrotation
					End Site
					{
						OFFSET 0.000000 22.523010 0.000000
					}
				}
				JOINT newVegas:Right_Peck
				{
					OFFSET -17.239599 -5.132202 25.482599
					CHANNELS 3 Xrotation Yrotation Zrotation
					End Site
					{
						OFFSET 0.000000 22.523010 0.000000
					}
				}
				JOINT newVegas:Right_Collar
				{
					OFFSET -18.625099 8.655792 8.828100
					CHANNELS 3 Xrotation Yrotation Zrotation
					JOINT newVegas:Right_Collar1
					{
						OFFSET -14.783401 10.539993 -1.259500
						CHANNELS 3 Xrotation Yrotation Zrotation
						End Site
						{
							OFFSET 0.000000 18.199631 0.000000
						}
					}
				}
			}
		}
		JOINT newVegas:Belly
		{
			OFFSET 0.000000 -6.540398 9.014299
			CHANNELS 3 Xrotation Yrotation Zrotation
			End Site
			{
				OFFSET 0.000000 11.566666 0.000000
			}
		}
	}
	JOINT newVegas:ElvisFacialAnim_Joint
	{
		OFFSET 1.000000 -95.330101 -8.825800
		CHANNELS 3 Xrotation Yrotation Zrotation
		End Site
		{
			OFFSET 0.000000 35.315800 0.000000
		}
	}
}
MOTION
Frames: 4
Frame Time: 0.033333
-1.264819 64.368958 106.229378 32.299012 41.565639 -4.780449 -0.000001 0.000000 0.000000 -8.629008 23.464039 25.673397 15.608167 -3.348333 3.948284 -19.548263 7.258621 -29.745190 0.000001 0.000001 0.000001 -0.000000 -0.000001 -0.000000 -107.967382 31.956013 -31.368518 78.662524 10.829870 1.133264 7.694268 8.547817 19.115087 -0.000000 0.000002 0.000000 -0.000000 -0.000002 -0.000001 15.971754 -6.970917 8.462956 4.179074 -2.658343 1.492402 4.146137 -2.677385 1.531738 4.050763 -1.989229 -0.195000 4.050748 -1.989231 -0.195001 -0.000000 -0.000002 -0.000000 4.050767 -1.989231 -0.195005 4.050742 -1.989229 -0.194998 0.000000 -0.000000 0.000001 -0.000000 -0.000002 -0.000002 0.357691 -0.580995 -0.493163 -341.274637 14.802847 -427.140169 -0.000000 -21.496540 -0.000001 2.964353 -13.601482 33.230226 -1.540021 3.690192 6.142340 3.939030 7.948703 0.746815 0.000000 -0.000002 0.000000 -0.219738 -14.255926 -1.757095 0.000007 0.000003 0.000006 -0.000002 0.000001 -0.000001 -0.004801 -2.137182 -0.241826 -0.000005 0.001927 -0.015988 -0.000004 0.000000 -0.000000 0.000003 0.000004 -0.000009 -0.000008 -0.000003 0.000006 0.000001 -0.000008 0.000005 -0.314113 16.929730 2.126318 -0.018083 -4.054247 -0.511060 0.000002 -0.000002 -0.000001 0.000000 -0.000002 0.000000 0.000000 -0.000002 0.000000 -0.000001 -0.000001 0.000001 -0.000000 -0.000001 -0.000000 -0.000000 -0.000001 -0.000000 -0.000000 -0.000001 -0.000000 -0.000002 -0.000001 -0.000000 -1.280891 -11.356898 -4.718700 11.116911 -31.264689 58.616547 -0.000001 21.942671 -0.000013 -38.966967 3.770939 -25.037754 -1.849250 -3.581787 -6.586141 4.637192 -8.634116 -0.225406 0.000002 -0.000001 -0.000000 -0.030440 5.340529 0.652747 0.000002 0.000002 -0.000001 -0.000000 -0.000000 0.000001 0.000002 0.000004 0.000003 -0.000001 0.000005 -0.000001 0.000000 0.000000 -0.000001 0.000001 0.000002 0.000001 0.000001 -0.000001 0.000003 0.000002 0.000001 -0.000000 -0.078850 -8.570112 -1.052335 -0.000000 -0.000000 -0.000000 0.000001 0.000002 -0.000000 -0.000002 0.000001 -0.000002 -0.000000 0.000002 -0.000001 -0.000002 0.000000 -0.000000 -0.000002 -0.000001 0.000002 -0.000002 0.000000 0.000003 -0.000002 -0.000001 0.000002 -0.000002 0.000000 0.000004 0.000001 -0.000002 -0.000002 0.000001 -0.000002 -0.000002 0.000001 -0.000002 -0.000002 0.000001 -0.000002 -0.000002 0.000001 -0.000002 -0.000002 0.000001 -0.000002 -0.000002 0.000001 -0.000002 -0.000002 -0.000001 -0.000002 -0.000001 -0.000001 0.000000 0.000000 
-1.386775 64.296761 107.463005 32.566895 41.496650 -4.600271 0.000000 0.000001 -0.000002 -10.012933 22.939641 26.211826 16.811793 -3.225157 4.407898 -17.649320 6.151799 -30.586758 0.000001 -0.000000 -0.000001 0.000001 0.000001 -0.000003 -109.117682 32.160239 -31.511378 81.016391 10.793021 1.600396 6.316729 8.939618 18.232384 0.000000 -0.000001 0.000000 0.000001 -0.000001 -0.000002 15.585438 -6.911445 8.147716 3.988530 -2.607406 1.007507 3.942696 -2.637860 1.047997 3.820347 -1.934206 -0.457426 3.820328 -1.934205 -0.457444 0.000002 -0.000002 0.000001 3.820402 -1.934229 -0.457420 3.820227 -1.934214 -0.457430 -0.000000 0.000001 0.000001 0.000002 -0.000002 0.000001 0.464405 -1.739924 -1.402237 -344.748881 16.639178 -420.938958 0.000006 -24.484212 -0.000007 3.821379 -14.038360 35.563750 -1.540035 3.690191 6.142358 3.939045 7.948704 0.746810 0.000003 -0.000003 0.000000 -0.259028 -15.442223 -1.910405 -0.000005 -0.000001 -0.000003 0.000001 0.000000 0.000001 -0.005638 -2.314931 -0.263310 0.000006 0.001931 -0.015984 -0.000006 -0.000003 0.000002 -0.000001 0.000002 0.000002 -0.000004 -0.000005 -0.000012 -0.000002 -0.000001 -0.000001 -0.356799 18.001085 2.268536 -0.018074 -4.054266 -0.511062 -0.000001 -0.000005 0.000004 -0.000002 0.000000 0.000001 -0.000002 0.000000 0.000001 -0.000003 0.000000 0.000002 0.000001 0.000000 0.000000 0.000001 -0.000001 0.000000 0.000001 0.000000 0.000000 -0.000001 0.000001 0.000000 -0.957009 -9.677972 -3.759100 6.210023 -32.554963 51.947509 -0.000013 22.836516 0.000003 -39.263568 3.106958 -25.748679 -1.849248 -3.581798 -6.586135 4.637190 -8.634128 -0.225403 0.000001 -0.000003 -0.000004 -0.035000 5.725258 0.700073 -0.000002 0.000001 0.000001 0.000000 0.000000 -0.000000 -0.000002 0.000002 0.000002 0.000001 0.000002 0.000038 0.000001 -0.000000 -0.000000 -0.000001 -0.000001 0.000003 0.000002 0.000000 0.000068 0.000000 0.000001 -0.000000 -0.090747 -9.187451 -1.129423 0.000002 0.000003 0.000059 0.000000 -0.000000 0.000000 0.000000 0.000000 0.000002 0.000000 -0.000000 -0.000002 0.000000 -0.000000 0.000002 -0.000001 0.000001 -0.000001 -0.000001 0.000001 -0.000002 -0.000001 0.000001 -0.000001 -0.000001 0.000001 -0.000000 0.000001 0.000002 0.000001 0.000001 0.000002 0.000001 0.000001 0.000002 0.000001 0.000001 0.000002 0.000001 0.000001 0.000002 0.000001 0.000001 0.000002 0.000001 0.000001 0.000002 0.000001 -0.000001 0.000003 -0.000001 0.000000 0.000001 -0.000002 
-1.502681 64.391548 108.445236 31.506259 42.061323 -4.165086 -0.000002 0.000002 -0.000001 -12.428006 21.997729 27.562004 20.603486 -3.854052 5.612773 -17.169596 4.833508 -30.940654 0.000001 0.000001 -0.000002 0.000001 -0.000002 -0.000003 -108.354661 31.906477 -32.064432 83.352214 10.727826 1.669839 4.490633 8.923158 17.474317 0.000000 0.000000 0.000000 -0.000001 0.000001 -0.000003 15.356104 -6.594171 7.378161 3.783228 -2.458813 0.398293 3.727776 -2.500123 0.440976 3.415746 -1.946899 -0.755955 3.415765 -1.946899 -0.755950 -0.000002 0.000002 -0.000000 3.415807 -1.946911 -0.755951 3.415730 -1.946895 -0.755954 0.000000 0.000000 0.000002 -0.000002 0.000002 -0.000000 0.557653 -2.990573 -2.069304 -348.893439 19.180978 -414.421673 0.000004 -30.142147 0.000007 4.288810 -14.170426 37.170911 -1.540041 3.690188 6.142362 3.939061 7.948712 0.746807 -0.000000 -0.000002 -0.000003 -0.263682 -15.576376 -1.927855 -0.000004 -0.000003 -0.000061 0.000002 -0.000001 -0.000000 -0.005742 -2.335031 -0.265736 -0.000001 0.001929 -0.015983 0.000002 -0.000004 0.000003 0.000004 -0.000000 0.000000 -0.000013 -0.000004 -0.000006 -0.000000 0.000001 0.000002 -0.361821 18.122239 2.284725 -0.018067 -4.054251 -0.511063 -0.000003 -0.000003 -0.000000 0.000001 0.000002 0.000000 0.000001 0.000002 0.000000 -0.000000 0.000002 0.000001 0.000000 0.000001 0.000000 0.000000 0.000000 -0.000000 0.000000 0.000001 0.000000 -0.000001 0.000002 0.000001 -0.634919 -7.531206 -3.045749 1.823600 -32.665086 44.646416 0.000011 23.345983 -0.000001 -37.250896 2.010344 -25.973078 -1.849250 -3.581796 -6.586133 4.637195 -8.634140 -0.225408 0.000000 -0.000001 0.000001 -0.035210 5.742031 0.702138 0.000002 0.000001 -0.000001 -0.000002 -0.000001 0.000000 0.000000 0.000002 0.000001 0.000000 0.000002 0.000000 0.000002 0.000000 -0.000000 -0.000000 0.000001 0.000000 0.000002 -0.000002 -0.000000 -0.000000 -0.000001 -0.000001 -0.091285 -9.214365 -1.132790 0.000001 -0.000001 0.000072 0.000000 0.000002 -0.000000 -0.000003 0.000002 0.000000 -0.000003 -0.000001 0.000000 -0.000003 0.000002 0.000001 -0.000002 -0.000003 0.000001 -0.000002 -0.000002 0.000002 -0.000002 -0.000003 0.000001 -0.000002 -0.000001 0.000002 -0.000002 0.000000 -0.000001 -0.000002 0.000000 -0.000001 -0.000002 0.000000 -0.000001 -0.000002 0.000000 -0.000001 -0.000002 0.000000 -0.000001 -0.000002 0.000000 -0.000001 -0.000002 0.000000 -0.000001 -0.000003 -0.000003 0.000002 -0.000002 0.000002 -0.000001 
-1.567686 64.609245 109.184982 29.465901 43.298533 -3.694141 -0.000001 -0.000002 0.000001 -15.225263 20.883554 29.399590 25.507309 -4.671813 7.117848 -17.735209 3.855647 -31.167891 -0.000000 -0.000002 0.000000 -0.000001 0.000000 -0.000000 -105.668415 31.440191 -33.397173 85.494065 10.760094 1.518358 2.222033 8.499111 17.452335 -0.000000 0.000002 0.000000 0.000000 -0.000003 -0.000000 15.133300 -6.118988 6.380386 3.577925 -2.246336 -0.260722 3.516516 -2.298936 -0.217445 2.964299 -1.974269 -1.098807 2.964297 -1.974273 -1.098802 -0.000000 0.000003 -0.000001 2.964290 -1.974277 -1.098807 2.964349 -1.974266 -1.098800 0.000004 0.000001 0.000001 -0.000000 0.000003 -0.000002 0.562726 -3.037536 -2.604151 -354.043812 20.645029 -408.272071 -0.000002 -37.515422 0.000005 8.509041 -15.123926 39.597441 -1.540032 3.690186 6.142349 3.939044 7.948708 0.746817 -0.000000 -0.000002 -0.000003 -0.243242 -14.978519 -1.850274 -0.000003 -0.000001 -0.000021 -0.000000 -0.000001 -0.000001 -0.005300 -2.245452 -0.254909 0.000004 0.001928 -0.015982 0.000000 0.000000 0.000001 0.000006 0.000005 -0.000003 0.000004 0.000001 -0.000066 -0.000004 -0.000001 -0.000001 -0.339733 17.582326 2.212751 -0.018085 -4.054261 -0.511063 -0.000000 -0.000003 -0.000001 0.000001 0.000001 0.000001 0.000001 0.000001 0.000001 0.000000 0.000001 0.000001 -0.000001 -0.000001 0.000002 -0.000001 -0.000002 0.000001 -0.000001 -0.000001 0.000002 -0.000003 -0.000000 0.000002 -0.382364 -5.737787 -2.393831 -2.700191 -31.229472 37.030673 0.000012 23.423756 0.000006 -36.415119 1.823970 -26.154092 -1.849250 -3.581796 -6.586140 4.637190 -8.634131 -0.225394 0.000001 0.000000 0.000001 -0.030530 5.348541 0.653731 0.000001 0.000002 0.000060 -0.000000 0.000000 0.000000 0.000000 -0.000000 0.000002 0.000000 0.000000 0.000049 0.000001 0.000001 0.000000 -0.000001 -0.000002 0.000004 0.000001 -0.000002 -0.000001 0.000000 0.000002 0.000000 -0.079087 -8.582976 -1.053942 -0.000000 -0.000001 0.000036 -0.000000 -0.000000 -0.000000 -0.000000 -0.000002 -0.000001 0.000003 -0.000002 -0.000002 -0.000000 -0.000002 -0.000001 0.000004 0.000001 0.000002 0.000004 0.000001 0.000002 0.000004 0.000001 0.000002 0.000004 0.000002 0.000002 -0.000000 -0.000001 -0.000000 -0.000000 -0.000001 -0.000000 -0.000000 -0.000001 -0.000000 -0.000000 -0.000001 -0.000000 -0.000000 -0.000001 -0.000000 -0.000000 -0.000001 -0.000000 -0.000000 -0.000001 -0.000000 0.000002 -0.000003 0.000002 -0.000001 -0.000002 0.000001 
